<?xml version="1.0" encoding="UTF-8" standalone="no"?>
<!DOCTYPE svg PUBLIC "-//W3C//DTD SVG 1.1//EN"
 "http://www.w3.org/Graphics/SVG/1.1/DTD/svg11.dtd">
<!-- Generated by graphviz version 2.40.1 (20161225.0304)
 -->
<!-- Title: hope_access Pages: 1 -->
<svg width="2138pt" height="1192pt"
 viewBox="0.00 0.00 2138.09 1192.27" xmlns="http://www.w3.org/2000/svg" xmlns:xlink="http://www.w3.org/1999/xlink">
<g id="graph0" class="graph" transform="scale(1 1) rotate(0) translate(4 1188.2685)">
<title>hope_access</title>
<polygon fill="#ffffff" stroke="transparent" points="-4,4 -4,-1188.2685 2134.087,-1188.2685 2134.087,4 -4,4"/>
<!-- srtr -->
<g id="node1" class="node">
<title>srtr</title>
<ellipse fill="#e0e0e0" stroke="#000000" cx="150.3105" cy="-1127.1342" rx="150.1213" ry="57.2688"/>
<text text-anchor="middle" x="150.3105" y="-1133.7342" font-family="Helvetica,sans-Serif" font-size="22.00" fill="#000000">SRTR transplant</text>
<text text-anchor="middle" x="150.3105" y="-1107.3342" font-family="Helvetica,sans-Serif" font-size="22.00" fill="#000000">registry data</text>
</g>
<!-- classify -->
<g id="node7" class="node">
<title>classify</title>
<path fill="#e8f1ff" stroke="#000000" d="M278.8105,-976C278.8105,-976 21.8105,-976 21.8105,-976 15.8105,-976 9.8105,-970 9.8105,-964 9.8105,-964 9.8105,-748 9.8105,-748 9.8105,-742 15.8105,-736 21.8105,-736 21.8105,-736 278.8105,-736 278.8105,-736 284.8105,-736 290.8105,-742 290.8105,-748 290.8105,-748 290.8105,-964 290.8105,-964 290.8105,-970 284.8105,-976 278.8105,-976"/>
<text text-anchor="start" x="73.0155" y="-935" font-family="Helvetica,sans-Serif" font-weight="bold" font-size="20.00" fill="#000000">Transplant center</text>
<text text-anchor="start" x="94.1405" y="-893" font-family="Helvetica,sans-Serif" font-weight="bold" font-size="20.00" fill="#000000">classification</text>
<text text-anchor="start" x="38.3105" y="-850" font-family="Helvetica,sans-Serif" font-size="20.00" fill="#000000">• Active centers</text>
<text text-anchor="start" x="38.0035" y="-808" font-family="Helvetica,sans-Serif" font-size="20.00" fill="#000000">• HIV transplant centers</text>
<text text-anchor="start" x="38.3105" y="-766" font-family="Helvetica,sans-Serif" font-size="20.00" fill="#000000">• HOPE centers</text>
</g>
<!-- srtr&#45;&gt;classify -->
<!-- srtr&#45;&gt;classify -->
<g id="edge6" class="edge">
<title>srtr&#45;&gt;classify</title>
<path fill="none" stroke="#000000" d="M172.725,-1070.6256C175.9785,-1045.9454 177.5007,-1015.8918 177.2916,-986.1834"/>
<polygon fill="#000000" stroke="#000000" points="180.7906,-986.0811 177.1543,-976.1298 173.7913,-986.1767 180.7906,-986.0811"/>
</g>
<!-- hrsa -->
<g id="node2" class="node">
<title>hrsa</title>
<ellipse fill="#e0e0e0" stroke="#000000" cx="927.3105" cy="-1127.1342" rx="151.3636" ry="57.2688"/>
<text text-anchor="middle" x="927.3105" y="-1133.7342" font-family="Helvetica,sans-Serif" font-size="22.00" fill="#000000">HRSA transplant</text>
<text text-anchor="middle" x="927.3105" y="-1107.3342" font-family="Helvetica,sans-Serif" font-size="22.00" fill="#000000">center data</text>
</g>
<!-- locations -->
<g id="node8" class="node">
<title>locations</title>
<path fill="#e8f1ff" stroke="#000000" d="M1020.8105,-913C1020.8105,-913 833.8105,-913 833.8105,-913 827.8105,-913 821.8105,-907 821.8105,-901 821.8105,-901 821.8105,-811 821.8105,-811 821.8105,-805 827.8105,-799 833.8105,-799 833.8105,-799 1020.8105,-799 1020.8105,-799 1026.8105,-799 1032.8105,-805 1032.8105,-811 1032.8105,-811 1032.8105,-901 1032.8105,-901 1032.8105,-907 1026.8105,-913 1020.8105,-913"/>
<text text-anchor="start" x="850.0155" y="-872" font-family="Helvetica,sans-Serif" font-weight="bold" font-size="20.00" fill="#000000">Transplant center</text>
<text text-anchor="start" x="888.3575" y="-830" font-family="Helvetica,sans-Serif" font-weight="bold" font-size="20.00" fill="#000000">locations</text>
</g>
<!-- hrsa&#45;&gt;locations -->
<!-- hrsa&#45;&gt;locations -->
<g id="edge7" class="edge">
<title>hrsa&#45;&gt;locations</title>
<path fill="none" stroke="#000000" d="M949.725,-1070.6256C955.3741,-1027.7727 955.8037,-968.7195 951.0138,-923.4025"/>
<polygon fill="#000000" stroke="#000000" points="954.4782,-922.8935 949.8375,-913.3692 947.5258,-923.7087 954.4782,-922.8935"/>
</g>
<!-- tiger -->
<g id="node3" class="node">
<title>tiger</title>
<ellipse fill="#e0e0e0" stroke="#000000" cx="538.3105" cy="-1127.1342" rx="165.737" ry="57.2688"/>
<text text-anchor="middle" x="538.3105" y="-1133.7342" font-family="Helvetica,sans-Serif" font-size="22.00" fill="#000000">US Census TIGER</text>
<text text-anchor="middle" x="538.3105" y="-1107.3342" font-family="Helvetica,sans-Serif" font-size="22.00" fill="#000000">geographic data</text>
</g>
<!-- dist -->
<g id="node9" class="node">
<title>dist</title>
<path fill="#e8f1ff" stroke="#000000" d="M732.3105,-627C732.3105,-627 536.3105,-627 536.3105,-627 530.3105,-627 524.3105,-621 524.3105,-615 524.3105,-615 524.3105,-549 524.3105,-549 524.3105,-543 530.3105,-537 536.3105,-537 536.3105,-537 732.3105,-537 732.3105,-537 738.3105,-537 744.3105,-543 744.3105,-549 744.3105,-549 744.3105,-615 744.3105,-615 744.3105,-621 738.3105,-627 732.3105,-627"/>
<text text-anchor="start" x="562.0735" y="-591" font-family="Helvetica,sans-Serif" font-size="20.00" fill="#000000">Distance buffers</text>
<text text-anchor="start" x="545.9595" y="-561" font-family="Helvetica,sans-Serif" font-size="20.00" fill="#000000">(50, 100, 200 miles)</text>
</g>
<!-- tiger&#45;&gt;dist -->
<!-- tiger&#45;&gt;dist -->
<g id="edge9" class="edge">
<title>tiger&#45;&gt;dist</title>
<path fill="none" stroke="#000000" d="M565.5286,-1070.5935C597.0677,-965.5273 636.4801,-741.4321 641.6775,-637.3062"/>
<polygon fill="#000000" stroke="#000000" points="645.1867,-637.1445 642.0902,-627.0122 638.1923,-636.864 645.1867,-637.1445"/>
</g>
<!-- mapbox -->
<g id="node4" class="node">
<title>mapbox</title>
<ellipse fill="#e0e0e0" stroke="#000000" cx="1262.3105" cy="-1127.1342" rx="112.0913" ry="57.2688"/>
<text text-anchor="middle" x="1262.3105" y="-1133.7342" font-family="Helvetica,sans-Serif" font-size="22.00" fill="#000000">Mapbox</text>
<text text-anchor="middle" x="1262.3105" y="-1107.3342" font-family="Helvetica,sans-Serif" font-size="22.00" fill="#000000">routing API</text>
</g>
<!-- iso -->
<g id="node10" class="node">
<title>iso</title>
<path fill="#e8f1ff" stroke="#000000" d="M1138.8105,-642C1138.8105,-642 1007.8105,-642 1007.8105,-642 1001.8105,-642 995.8105,-636 995.8105,-630 995.8105,-630 995.8105,-534 995.8105,-534 995.8105,-528 1001.8105,-522 1007.8105,-522 1007.8105,-522 1138.8105,-522 1138.8105,-522 1144.8105,-522 1150.8105,-528 1150.8105,-534 1150.8105,-534 1150.8105,-630 1150.8105,-630 1150.8105,-636 1144.8105,-642 1138.8105,-642"/>
<text text-anchor="start" x="1023.8205" y="-606" font-family="Helvetica,sans-Serif" font-size="20.00" fill="#000000">Travel&#45;time</text>
<text text-anchor="start" x="1025.4675" y="-576" font-family="Helvetica,sans-Serif" font-size="20.00" fill="#000000">isochrones</text>
<text text-anchor="start" x="1018.2515" y="-546" font-family="Helvetica,sans-Serif" font-size="20.00" fill="#000000">(60 minutes)</text>
</g>
<!-- mapbox&#45;&gt;iso -->
<!-- mapbox&#45;&gt;iso -->
<g id="edge11" class="edge">
<title>mapbox&#45;&gt;iso</title>
<path fill="none" stroke="#000000" d="M1259.7972,-1069.8256C1237.2272,-969.0229 1165.3514,-760.3773 1116.1556,-651.5179"/>
<polygon fill="#000000" stroke="#000000" points="1119.2608,-649.8925 1111.9136,-642.259 1112.8969,-652.8081 1119.2608,-649.8925"/>
</g>
<!-- cdc -->
<g id="node5" class="node">
<title>cdc</title>
<ellipse fill="#e0e0e0" stroke="#000000" cx="1598.3105" cy="-1127.1342" rx="152.1057" ry="57.2688"/>
<text text-anchor="middle" x="1598.3105" y="-1133.7342" font-family="Helvetica,sans-Serif" font-size="22.00" fill="#000000">CDC HIV</text>
<text text-anchor="middle" x="1598.3105" y="-1107.3342" font-family="Helvetica,sans-Serif" font-size="22.00" fill="#000000">surveillance data</text>
</g>
<!-- tract -->
<g id="node11" class="node">
<title>tract</title>
<path fill="#e8f1ff" stroke="#000000" d="M1684.8105,-627C1684.8105,-627 1511.8105,-627 1511.8105,-627 1505.8105,-627 1499.8105,-621 1499.8105,-615 1499.8105,-615 1499.8105,-549 1499.8105,-549 1499.8105,-543 1505.8105,-537 1511.8105,-537 1511.8105,-537 1684.8105,-537 1684.8105,-537 1690.8105,-537 1696.8105,-543 1696.8105,-549 1696.8105,-549 1696.8105,-615 1696.8105,-615 1696.8105,-621 1690.8105,-627 1684.8105,-627"/>
<text text-anchor="start" x="1556.5885" y="-591" font-family="Helvetica,sans-Serif" font-size="20.00" fill="#000000">Tract HIV</text>
<text text-anchor="start" x="1522.1245" y="-561" font-family="Helvetica,sans-Serif" font-size="20.00" fill="#000000">burden estimates</text>
</g>
<!-- cdc&#45;&gt;tract -->
<!-- cdc&#45;&gt;tract -->
<g id="edge12" class="edge">
<title>cdc&#45;&gt;tract</title>
<path fill="none" stroke="#000000" d="M1615.6032,-1070.338C1628.6075,-965.1691 1628.546,-741.3677 1615.4188,-637.3201"/>
<polygon fill="#000000" stroke="#000000" points="1618.8766,-636.7717 1614.064,-627.333 1611.9401,-637.7128 1618.8766,-636.7717"/>
</g>
<!-- census -->
<g id="node6" class="node">
<title>census</title>
<ellipse fill="#e0e0e0" stroke="#000000" cx="1976.3105" cy="-1127.1342" rx="153.5533" ry="57.2688"/>
<text text-anchor="middle" x="1976.3105" y="-1133.7342" font-family="Helvetica,sans-Serif" font-size="22.00" fill="#000000">US Census</text>
<text text-anchor="middle" x="1976.3105" y="-1107.3342" font-family="Helvetica,sans-Serif" font-size="22.00" fill="#000000">population (ACS)</text>
</g>
<!-- census&#45;&gt;tract -->
<g id="edge13" class="edge">
<title>census&#45;&gt;tract</title>
<path fill="none" stroke="#000000" d="M1937.8102,-1071.6108C1864.8771,-966.4301 1707.4507,-739.397 1635.5243,-635.6679"/>
<polygon fill="#000000" stroke="#000000" points="1638.2391,-633.4408 1629.6647,-627.2175 1632.4867,-637.4296 1638.2391,-633.4408"/>
</g>
<!-- model -->
<g id="node12" class="node">
<title>model</title>
<path fill="#f4e1d2" stroke="#000000" d="M970.3105,-428C970.3105,-428 686.3105,-428 686.3105,-428 680.3105,-428 674.3105,-422 674.3105,-416 674.3105,-416 674.3105,-276 674.3105,-276 674.3105,-270 680.3105,-264 686.3105,-264 686.3105,-264 970.3105,-264 970.3105,-264 976.3105,-264 982.3105,-270 982.3105,-276 982.3105,-276 982.3105,-416 982.3105,-416 982.3105,-422 976.3105,-428 970.3105,-428"/>
<text text-anchor="start" x="712.7285" y="-383" font-family="Helvetica,sans-Serif" font-weight="bold" font-size="20.00" fill="#000000">Geographic access model</text>
<text text-anchor="start" x="706.0595" y="-340" font-family="Helvetica,sans-Serif" font-size="20.00" fill="#000000">Intersect access zones with</text>
<text text-anchor="start" x="716.6245" y="-298" font-family="Helvetica,sans-Serif" font-size="20.00" fill="#000000">tract&#45;level HIV population</text>
</g>
<!-- classify&#45;&gt;model -->
<g id="edge14" class="edge">
<title>classify&#45;&gt;model</title>
<path fill="none" stroke="#000000" d="M254.8798,-735.9644C318.0658,-667.9146 402.7291,-584.2096 488.3105,-522 542.534,-482.5847 606.8037,-446.9094 664.7881,-418.1447"/>
<polygon fill="#000000" stroke="#000000" points="666.6139,-421.1469 674.0377,-413.5879 663.5204,-414.8675 666.6139,-421.1469"/>
</g>
<!-- locations&#45;&gt;dist -->
<g id="edge8" class="edge">
<title>locations&#45;&gt;dist</title>
<path fill="none" stroke="#000000" d="M866.2448,-798.8941C814.399,-750.4104 740.61,-681.4063 690.2749,-634.3353"/>
<polygon fill="#000000" stroke="#000000" points="692.4093,-631.5393 682.7147,-627.2653 687.628,-636.652 692.4093,-631.5393"/>
</g>
<!-- locations&#45;&gt;iso -->
<g id="edge10" class="edge">
<title>locations&#45;&gt;iso</title>
<path fill="none" stroke="#000000" d="M957.7392,-798.8941C980.6168,-755.9595 1012.0689,-696.9329 1036.3865,-651.2958"/>
<polygon fill="#000000" stroke="#000000" points="1039.5365,-652.8269 1041.1502,-642.3556 1033.3588,-649.5351 1039.5365,-652.8269"/>
</g>
<!-- dist&#45;&gt;model -->
<g id="edge15" class="edge">
<title>dist&#45;&gt;model</title>
<path fill="none" stroke="#000000" d="M671.4861,-536.7761C694.9096,-508.2815 725.9689,-470.4981 754.2637,-436.0775"/>
<polygon fill="#000000" stroke="#000000" points="756.9852,-438.2786 760.6317,-428.331 751.5777,-433.8334 756.9852,-438.2786"/>
</g>
<!-- iso&#45;&gt;model -->
<g id="edge16" class="edge">
<title>iso&#45;&gt;model</title>
<path fill="none" stroke="#000000" d="M1010.8528,-521.8366C983.6679,-495.6504 951.242,-464.4156 921.3136,-435.5866"/>
<polygon fill="#000000" stroke="#000000" points="923.3935,-432.7304 913.7632,-428.3135 918.5372,-437.7719 923.3935,-432.7304"/>
</g>
<!-- tract&#45;&gt;model -->
<g id="edge17" class="edge">
<title>tract&#45;&gt;model</title>
<path fill="none" stroke="#000000" d="M1499.6154,-551.7506C1371.426,-512.4614 1145.8838,-443.3341 991.9102,-396.1422"/>
<polygon fill="#000000" stroke="#000000" points="992.9212,-392.7915 982.3346,-393.2074 990.8699,-399.4842 992.9212,-392.7915"/>
</g>
<!-- result -->
<g id="node13" class="node">
<title>result</title>
<path fill="#dff2df" stroke="#000000" d="M969.3105,-170C969.3105,-170 687.3105,-170 687.3105,-170 681.3105,-170 675.3105,-164 675.3105,-158 675.3105,-158 675.3105,-12 675.3105,-12 675.3105,-6 681.3105,0 687.3105,0 687.3105,0 969.3105,0 969.3105,0 975.3105,0 981.3105,-6 981.3105,-12 981.3105,-12 981.3105,-158 981.3105,-158 981.3105,-164 975.3105,-170 969.3105,-170"/>
<text text-anchor="start" x="753.736" y="-122.2" font-family="Helvetica,sans-Serif" font-size="22.00" fill="#000000">Population with</text>
<text text-anchor="start" x="736.6167" y="-78.2" font-family="Helvetica,sans-Serif" font-size="22.00" fill="#000000">geographic access</text>
<text text-anchor="start" x="707.2797" y="-34.2" font-family="Helvetica,sans-Serif" font-size="22.00" fill="#000000">to HIV transplant centers</text>
</g>
<!-- model&#45;&gt;result -->
<g id="edge18" class="edge">
<title>model&#45;&gt;result</title>
<path fill="none" stroke="#000000" d="M828.3105,-263.7762C828.3105,-237.4096 828.3105,-207.9823 828.3105,-180.7358"/>
<polygon fill="#000000" stroke="#000000" points="831.8106,-180.411 828.3105,-170.4111 824.8106,-180.4111 831.8106,-180.411"/>
</g>
</g>
</svg>

